<svg xmlns="http://www.w3.org/2000/svg" xmlns:xlink="http://www.w3.org/1999/xlink" width="3000" zoomAndPan="magnify" viewBox="0 0 2250 1124.99995" height="1500" preserveAspectRatio="xMidYMid meet" version="1.0"><defs><g/><clipPath id="2213abd36c"><path d="M 835 639 L 1419 639 L 1419 768 L 835 768 Z M 835 639 " clip-rule="nonzero"/></clipPath><clipPath id="9df5d8b8a6"><path d="M 558.039062 639.027344 L 1624.835938 702.941406 L 1618.972656 800.804688 L 552.175781 736.890625 Z M 558.039062 639.027344 " clip-rule="nonzero"/></clipPath><clipPath id="7e47b26551"><path d="M 1618.976562 800.929688 L 552.183594 737.015625 L 569.140625 454.003906 L 1635.933594 517.921875 Z M 1618.976562 800.929688 " clip-rule="nonzero"/></clipPath><clipPath id="8ee4f44eb0"><path d="M 1047 145 L 1210 145 L 1210 497 L 1047 497 Z M 1047 145 " clip-rule="nonzero"/></clipPath><clipPath id="5f762a7a73"><path d="M 1183.753906 496.199219 L 1047.53125 475.539062 L 1097.589844 145.453125 L 1233.816406 166.113281 Z M 1183.753906 496.199219 " clip-rule="nonzero"/></clipPath><clipPath id="55ac60451e"><path d="M 1137.066406 804.042969 L 1000.839844 783.382812 L 1138.710938 -125.664062 L 1274.933594 -105.003906 Z M 1137.066406 804.042969 " clip-rule="nonzero"/></clipPath><clipPath id="4336f4de24"><path d="M 1047 145 L 1231 145 L 1231 497 L 1047 497 Z M 1047 145 " clip-rule="nonzero"/></clipPath><clipPath id="c82a720f7a"><path d="M 1183.753906 496.199219 L 1047.53125 475.539062 L 1097.589844 145.453125 L 1233.816406 166.113281 Z M 1183.753906 496.199219 " clip-rule="nonzero"/></clipPath><clipPath id="173e443956"><path d="M 1137.066406 804.042969 L 1000.839844 783.382812 L 1138.710938 -125.664062 L 1274.933594 -105.003906 Z M 1137.066406 804.042969 " clip-rule="nonzero"/></clipPath><clipPath id="3067f11b62"><path d="M 672 587 L 1131 587 L 1131 691.824219 L 672 691.824219 Z M 672 587 " clip-rule="nonzero"/></clipPath><clipPath id="6aa697efec"><path d="M 1015 474 L 1184 474 L 1184 788 L 1015 788 Z M 1015 474 " clip-rule="nonzero"/></clipPath><clipPath id="e584e77ce7"><path d="M 1137.066406 804.046875 L 1000.839844 783.386719 L 1047.722656 474.257812 L 1183.949219 494.917969 Z M 1137.066406 804.046875 " clip-rule="nonzero"/></clipPath><clipPath id="f73a5b13be"><path d="M 1137.066406 804.046875 L 1000.839844 783.386719 L 1138.710938 -125.660156 L 1274.933594 -105 Z M 1137.066406 804.046875 " clip-rule="nonzero"/></clipPath><clipPath id="406042ebe1"><path d="M 1007 474 L 1184 474 L 1184 795 L 1007 795 Z M 1007 474 " clip-rule="nonzero"/></clipPath><clipPath id="cbc1dfdcb9"><path d="M 1137.066406 804.046875 L 1000.839844 783.386719 L 1047.722656 474.257812 L 1183.949219 494.917969 Z M 1137.066406 804.046875 " clip-rule="nonzero"/></clipPath><clipPath id="87f387f21d"><path d="M 1137.066406 804.046875 L 1000.839844 783.386719 L 1138.710938 -125.660156 L 1274.933594 -105 Z M 1137.066406 804.046875 " clip-rule="nonzero"/></clipPath><clipPath id="2bb48e7fee"><path d="M 1021 706 L 1134 706 L 1134 781 L 1021 781 Z M 1021 706 " clip-rule="nonzero"/></clipPath><clipPath id="5f736f126a"><path d="M 1137.066406 804.046875 L 1000.839844 783.386719 L 1047.722656 474.257812 L 1183.949219 494.917969 Z M 1137.066406 804.046875 " clip-rule="nonzero"/></clipPath><clipPath id="c37c4c16c6"><path d="M 1137.066406 804.046875 L 1000.839844 783.386719 L 1138.710938 -125.660156 L 1274.933594 -105 Z M 1137.066406 804.046875 " clip-rule="nonzero"/></clipPath></defs><g fill="#043653" fill-opacity="1"><g transform="translate(870.84165, 902.275457)"><g><path d="M 40.34375 -62.5625 C 45.1875 -62.5625 49.382812 -61.445312 52.9375 -59.21875 C 56.488281 -56.988281 59.207031 -53.910156 61.09375 -49.984375 C 62.976562 -46.054688 63.921875 -41.597656 63.921875 -36.609375 L 63.921875 0 L 54.296875 0 L 54.296875 -34.34375 C 54.296875 -40.613281 52.878906 -45.410156 50.046875 -48.734375 C 47.210938 -52.054688 43.148438 -53.71875 37.859375 -53.71875 C 34.378906 -53.71875 31.238281 -52.828125 28.4375 -51.046875 C 25.644531 -49.273438 23.4375 -46.84375 21.8125 -43.75 C 20.1875 -40.65625 19.375 -37.21875 19.375 -33.4375 L 19.375 0 L 9.75 0 L 9.75 -61.203125 L 16.546875 -61.203125 L 18.46875 -51.578125 C 20.738281 -54.972656 23.757812 -57.648438 27.53125 -59.609375 C 31.3125 -61.578125 35.582031 -62.5625 40.34375 -62.5625 Z M 40.34375 -62.5625 "/></g></g></g><g fill="#043653" fill-opacity="1"><g transform="translate(943.606764, 902.275457)"><g><path d="M 61.890625 -61.203125 L 69.59375 -61.203125 L 69.59375 0 L 61.546875 0 L 60.53125 -9.296875 C 57.726562 -5.972656 54.269531 -3.363281 50.15625 -1.46875 C 46.039062 0.414062 41.488281 1.359375 36.5 1.359375 C 30.53125 1.359375 25.144531 -0.0351562 20.34375 -2.828125 C 15.539062 -5.628906 11.757812 -9.445312 9 -14.28125 C 6.25 -19.113281 4.875 -24.554688 4.875 -30.609375 C 4.875 -36.722656 6.25 -42.175781 9 -46.96875 C 11.757812 -51.769531 15.539062 -55.566406 20.34375 -58.359375 C 25.144531 -61.160156 30.53125 -62.5625 36.5 -62.5625 C 41.5625 -62.5625 46.148438 -61.597656 50.265625 -59.671875 C 54.378906 -57.742188 57.835938 -55.117188 60.640625 -51.796875 Z M 37.296875 -7.9375 C 41.597656 -7.9375 45.445312 -8.914062 48.84375 -10.875 C 52.25 -12.84375 54.914062 -15.546875 56.84375 -18.984375 C 58.769531 -22.421875 59.734375 -26.296875 59.734375 -30.609375 C 59.734375 -34.910156 58.769531 -38.78125 56.84375 -42.21875 C 54.914062 -45.65625 52.25 -48.351562 48.84375 -50.3125 C 45.445312 -52.28125 41.597656 -53.265625 37.296875 -53.265625 C 32.984375 -53.265625 29.125 -52.265625 25.71875 -50.265625 C 22.320312 -48.265625 19.640625 -45.5625 17.671875 -42.15625 C 15.710938 -38.757812 14.734375 -34.910156 14.734375 -30.609375 C 14.734375 -26.296875 15.710938 -22.4375 17.671875 -19.03125 C 19.640625 -15.632812 22.320312 -12.9375 25.71875 -10.9375 C 29.125 -8.9375 32.984375 -7.9375 37.296875 -7.9375 Z M 37.296875 -7.9375 "/></g></g></g><g fill="#043653" fill-opacity="1"><g transform="translate(1022.832245, 902.275457)"><g><path d="M 54.40625 -61.203125 L 64.71875 -61.203125 L 35.59375 2.5 C 33.394531 7.332031 31.179688 11.164062 28.953125 14 C 26.722656 16.832031 24.226562 18.851562 21.46875 20.0625 C 18.71875 21.269531 15.414062 21.875 11.5625 21.875 L 5.78125 21.875 L 5.78125 13.140625 L 10.765625 13.140625 C 13.484375 13.140625 15.710938 12.78125 17.453125 12.0625 C 19.191406 11.351562 20.757812 10.085938 22.15625 8.265625 C 23.550781 6.453125 25.082031 3.847656 26.75 0.453125 L 28.90625 -4.1875 L 1.703125 -61.203125 L 12.234375 -61.203125 L 34 -14.84375 Z M 54.40625 -61.203125 "/></g></g></g><g fill="#043653" fill-opacity="1"><g transform="translate(1089.250247, 902.275457)"><g><path d="M 9.75 0 L 9.75 -83.078125 L 19.375 -83.078125 L 19.375 0 Z M 9.75 0 "/></g></g></g><g fill="#043653" fill-opacity="1"><g transform="translate(1118.265525, 902.275457)"><g><path d="M 35.8125 1.359375 C 30.300781 1.359375 25.523438 0.226562 21.484375 -2.03125 C 17.441406 -4.300781 14.285156 -7.457031 12.015625 -11.5 C 9.742188 -15.539062 8.609375 -20.320312 8.609375 -25.84375 L 8.609375 -61.203125 L 18.25 -61.203125 L 18.25 -27.421875 C 18.25 -21.378906 19.816406 -16.617188 22.953125 -13.140625 C 26.085938 -9.671875 30.375 -7.9375 35.8125 -7.9375 C 41.257812 -7.9375 45.53125 -9.691406 48.625 -13.203125 C 51.71875 -16.710938 53.265625 -21.453125 53.265625 -27.421875 L 53.265625 -61.203125 L 62.90625 -61.203125 L 62.90625 -25.84375 C 62.90625 -20.320312 61.804688 -15.539062 59.609375 -11.5 C 57.421875 -7.457031 54.285156 -4.300781 50.203125 -2.03125 C 46.128906 0.226562 41.332031 1.359375 35.8125 1.359375 Z M 35.8125 1.359375 "/></g></g></g><g fill="#043653" fill-opacity="1"><g transform="translate(1189.89719, 902.275457)"><g><path d="M 29.125 1.359375 C 21.800781 1.359375 15.945312 -0.453125 11.5625 -4.078125 C 7.175781 -7.703125 4.867188 -12.613281 4.640625 -18.8125 L 14.046875 -18.8125 C 14.273438 -15.113281 15.828125 -12.316406 18.703125 -10.421875 C 21.578125 -8.535156 25.128906 -7.59375 29.359375 -7.59375 C 33.585938 -7.59375 37.039062 -8.421875 39.71875 -10.078125 C 42.40625 -11.742188 43.75 -14.085938 43.75 -17.109375 C 43.75 -19.453125 43.007812 -21.265625 41.53125 -22.546875 C 40.0625 -23.835938 38.117188 -24.800781 35.703125 -25.4375 C 33.285156 -26.082031 30.675781 -26.632812 27.875 -27.09375 C 25.3125 -27.539062 22.722656 -28.085938 20.109375 -28.734375 C 17.503906 -29.378906 15.109375 -30.285156 12.921875 -31.453125 C 10.734375 -32.617188 8.992188 -34.28125 7.703125 -36.4375 C 6.421875 -38.59375 5.78125 -41.410156 5.78125 -44.890625 C 5.78125 -50.097656 7.894531 -54.34375 12.125 -57.625 C 16.351562 -60.914062 21.910156 -62.5625 28.796875 -62.5625 C 35.742188 -62.5625 41.296875 -60.84375 45.453125 -57.40625 C 49.609375 -53.96875 51.757812 -49.378906 51.90625 -43.640625 L 42.84375 -43.640625 C 42.613281 -46.960938 41.25 -49.507812 38.75 -51.28125 C 36.257812 -53.0625 32.898438 -53.953125 28.671875 -53.953125 C 24.515625 -53.953125 21.207031 -53.140625 18.75 -51.515625 C 16.300781 -49.890625 15.078125 -47.753906 15.078125 -45.109375 C 15.078125 -42.992188 15.773438 -41.367188 17.171875 -40.234375 C 18.566406 -39.097656 20.414062 -38.25 22.71875 -37.6875 C 25.03125 -37.125 27.546875 -36.613281 30.265625 -36.15625 C 32.910156 -35.78125 35.59375 -35.269531 38.3125 -34.625 C 41.03125 -33.976562 43.519531 -33.03125 45.78125 -31.78125 C 48.050781 -30.539062 49.863281 -28.785156 51.21875 -26.515625 C 52.582031 -24.253906 53.265625 -21.269531 53.265625 -17.5625 C 53.265625 -11.820312 51.054688 -7.234375 46.640625 -3.796875 C 42.222656 -0.359375 36.382812 1.359375 29.125 1.359375 Z M 29.125 1.359375 "/></g></g></g><g fill="#043653" fill-opacity="1"><g transform="translate(1248.041289, 902.275457)"><g><path d="M 29.125 1.359375 C 21.800781 1.359375 15.945312 -0.453125 11.5625 -4.078125 C 7.175781 -7.703125 4.867188 -12.613281 4.640625 -18.8125 L 14.046875 -18.8125 C 14.273438 -15.113281 15.828125 -12.316406 18.703125 -10.421875 C 21.578125 -8.535156 25.128906 -7.59375 29.359375 -7.59375 C 33.585938 -7.59375 37.039062 -8.421875 39.71875 -10.078125 C 42.40625 -11.742188 43.75 -14.085938 43.75 -17.109375 C 43.75 -19.453125 43.007812 -21.265625 41.53125 -22.546875 C 40.0625 -23.835938 38.117188 -24.800781 35.703125 -25.4375 C 33.285156 -26.082031 30.675781 -26.632812 27.875 -27.09375 C 25.3125 -27.539062 22.722656 -28.085938 20.109375 -28.734375 C 17.503906 -29.378906 15.109375 -30.285156 12.921875 -31.453125 C 10.734375 -32.617188 8.992188 -34.28125 7.703125 -36.4375 C 6.421875 -38.59375 5.78125 -41.410156 5.78125 -44.890625 C 5.78125 -50.097656 7.894531 -54.34375 12.125 -57.625 C 16.351562 -60.914062 21.910156 -62.5625 28.796875 -62.5625 C 35.742188 -62.5625 41.296875 -60.84375 45.453125 -57.40625 C 49.609375 -53.96875 51.757812 -49.378906 51.90625 -43.640625 L 42.84375 -43.640625 C 42.613281 -46.960938 41.25 -49.507812 38.75 -51.28125 C 36.257812 -53.0625 32.898438 -53.953125 28.671875 -53.953125 C 24.515625 -53.953125 21.207031 -53.140625 18.75 -51.515625 C 16.300781 -49.890625 15.078125 -47.753906 15.078125 -45.109375 C 15.078125 -42.992188 15.773438 -41.367188 17.171875 -40.234375 C 18.566406 -39.097656 20.414062 -38.25 22.71875 -37.6875 C 25.03125 -37.125 27.546875 -36.613281 30.265625 -36.15625 C 32.910156 -35.78125 35.59375 -35.269531 38.3125 -34.625 C 41.03125 -33.976562 43.519531 -33.03125 45.78125 -31.78125 C 48.050781 -30.539062 49.863281 -28.785156 51.21875 -26.515625 C 52.582031 -24.253906 53.265625 -21.269531 53.265625 -17.5625 C 53.265625 -11.820312 51.054688 -7.234375 46.640625 -3.796875 C 42.222656 -0.359375 36.382812 1.359375 29.125 1.359375 Z M 29.125 1.359375 "/></g></g></g><g clip-path="url(#2213abd36c)"><g clip-path="url(#9df5d8b8a6)"><g clip-path="url(#7e47b26551)"><path fill="#043653" d="M 1287.894531 730.710938 C 1198.308594 725.34375 1151.816406 700.589844 1117.867188 682.515625 L 1113.792969 680.351562 C 1107.550781 677.039062 1100.847656 673 1093.066406 668.308594 C 1058.058594 647.199219 1008.550781 617.347656 932.066406 612.765625 C 912.558594 611.652344 893.085938 612.113281 873.652344 614.148438 L 835.792969 618 L 873.046875 625.777344 C 954.753906 642.832031 991.476562 671.070312 1026.996094 698.382812 C 1054.03125 719.167969 1079.566406 738.800781 1124.355469 752.894531 C 1196.207031 775.5 1274.890625 772.019531 1371.976562 741.949219 L 1418.097656 727.664062 L 1369.898438 730.441406 C 1342.566406 732.125 1315.234375 732.214844 1287.894531 730.710938 Z M 1115.082031 687.707031 Z M 1115.082031 687.707031 " fill-opacity="1" fill-rule="nonzero"/></g></g></g><g clip-path="url(#8ee4f44eb0)"><g clip-path="url(#5f762a7a73)"><g clip-path="url(#55ac60451e)"><path fill="#ffffff" d="M 1070.3125 784.40625 C 1137.15625 794.542969 1133.042969 775.871094 1140.558594 726.332031 C 1163.4375 575.484375 1140.707031 534.28125 1131.222656 504.621094 C 1103.691406 681.816406 1095.324219 692.652344 1095.324219 692.652344 L 1128.082031 476.667969 C 1134.125 436.808594 1201.597656 -27.363281 1209.941406 -84.742188 L 1202.304688 -85.898438 L 1107.394531 539.910156 C 1096.660156 610.667969 1081.558594 658.054688 1081.558594 658.054688 L 1196.871094 -86.722656 L 1194.683594 -87.054688 C 1185.636719 -29.785156 1112.441406 433.519531 1106.394531 473.378906 L 1070.011719 713.273438 C 1070.011719 713.273438 1069.429688 711.511719 1069.972656 700.605469 C 1070.066406 670.816406 1071.390625 593.105469 1081.765625 517.507812 C 1063.292969 543.9375 1038.449219 589.417969 1020.449219 708.117188 C 1012.933594 757.65625 1003.476562 774.269531 1070.3125 784.40625 Z M 1022.636719 730.871094 C 1024.273438 722.507812 1026.3125 714.359375 1028.390625 706.152344 C 1027.972656 714.59375 1026.910156 723.011719 1026.324219 731.34375 C 1026.011719 735.496094 1025.804688 739.648438 1026.140625 743.621094 C 1026.269531 745.613281 1026.613281 747.523438 1027.042969 749.363281 C 1027.53125 751.1875 1028.253906 752.875 1029.144531 754.425781 C 1032.902344 760.542969 1040.507812 763.808594 1048.175781 766.035156 C 1055.933594 768.324219 1064.132812 769.773438 1072.347656 770.992188 C 1080.5625 772.25 1088.820312 773.316406 1096.90625 773.414062 C 1104.894531 773.5625 1113.113281 772.695312 1118.511719 767.976562 C 1119.828125 766.757812 1121.015625 765.367188 1122.019531 763.765625 C 1122.984375 762.140625 1123.867188 760.414062 1124.589844 758.550781 C 1126.085938 754.851562 1127.121094 750.832031 1128.054688 746.773438 C 1129.96875 738.644531 1131.445312 730.289062 1133.558594 722.101562 C 1133.117188 730.554688 1132.640625 738.941406 1131.734375 747.417969 C 1131.21875 751.644531 1130.5625 755.90625 1129.308594 760.179688 C 1128.101562 764.425781 1126.019531 768.75 1122.632812 772.273438 C 1120.90625 773.980469 1118.933594 775.429688 1116.816406 776.574219 C 1114.675781 777.628906 1112.453125 778.488281 1110.226562 779.019531 C 1105.757812 780.152344 1101.296875 780.523438 1096.921875 780.636719 C 1088.152344 780.75 1079.648438 779.683594 1071.203125 778.519531 C 1062.808594 777.121094 1054.363281 775.628906 1046.027344 772.902344 C 1041.878906 771.5 1037.730469 769.832031 1033.804688 767.417969 C 1031.835938 766.25 1029.960938 764.777344 1028.242188 763.132812 C 1026.558594 761.410156 1025.097656 759.441406 1023.960938 757.296875 C 1021.769531 752.9375 1021.058594 748.1875 1021.171875 743.773438 C 1021.246094 739.320312 1021.871094 735.0625 1022.636719 730.871094 " fill-opacity="1" fill-rule="nonzero"/></g></g></g><g clip-path="url(#4336f4de24)"><g clip-path="url(#c82a720f7a)"><g clip-path="url(#173e443956)"><path fill="#043653" d="M 1069.167969 791.9375 C 1100.535156 796.695312 1117.789062 795.304688 1128.710938 787.144531 C 1141.050781 777.933594 1143.257812 761.988281 1146.3125 739.914062 C 1146.863281 735.953125 1147.429688 731.855469 1148.09375 727.476562 C 1169 589.644531 1152.484375 542.507812 1141.550781 511.316406 C 1136.921875 498.101562 1133.859375 489.375 1135.613281 477.8125 C 1141.640625 438.078125 1209.492188 -28.703125 1217.546875 -84.125 C 1223.609375 -85.964844 1229.265625 -89.917969 1230.296875 -96.726562 C 1232.246094 -109.574219 1219.035156 -111.578125 1214.695312 -112.234375 C 1213.566406 -112.40625 1212.347656 -112.570312 1211.042969 -112.75 C 1209.625 -112.941406 1208.101562 -113.148438 1206.476562 -113.394531 C 1204.859375 -113.640625 1203.34375 -113.894531 1201.929688 -114.132812 C 1200.628906 -114.347656 1199.414062 -114.554688 1198.289062 -114.722656 C 1193.949219 -115.382812 1180.738281 -117.386719 1178.789062 -104.535156 C 1177.757812 -97.730469 1181.984375 -92.28125 1187.230469 -88.722656 C 1178.488281 -33.40625 1104.878906 432.503906 1098.855469 472.234375 C 1097.101562 483.800781 1091.59375 491.226562 1083.257812 502.472656 C 1063.570312 529.023438 1033.820312 569.140625 1012.914062 706.972656 C 1012.25 711.351562 1011.578125 715.4375 1010.929688 719.378906 C 1007.300781 741.367188 1004.679688 757.257812 1013.730469 769.707031 C 1021.75 780.738281 1037.8125 787.183594 1069.167969 791.9375 Z M 1186.328125 -103.394531 C 1187.039062 -108.082031 1190.644531 -108.171875 1197.144531 -107.1875 C 1199.496094 -106.828125 1202.230469 -106.332031 1205.332031 -105.863281 C 1208.445312 -105.390625 1211.199219 -105.054688 1213.550781 -104.699219 C 1220.050781 -103.710938 1223.46875 -102.554688 1222.757812 -97.867188 C 1221.789062 -91.480469 1210.785156 -90.554688 1210.785156 -90.554688 L 1195.597656 -92.859375 C 1195.597656 -92.859375 1185.359375 -97.003906 1186.328125 -103.394531 Z M 1020.449219 708.117188 C 1038.449219 589.417969 1063.292969 543.9375 1081.765625 517.507812 C 1071.390625 593.105469 1070.066406 670.816406 1069.972656 700.605469 C 1069.429688 711.511719 1070.011719 713.273438 1070.011719 713.273438 L 1106.394531 473.378906 C 1112.441406 433.519531 1185.636719 -29.785156 1194.683594 -87.054688 L 1196.871094 -86.722656 L 1081.558594 658.054688 C 1081.558594 658.054688 1096.660156 610.667969 1107.394531 539.910156 L 1202.304688 -85.898438 L 1209.941406 -84.742188 C 1201.597656 -27.363281 1134.125 436.808594 1128.082031 476.667969 L 1095.324219 692.652344 C 1095.324219 692.652344 1103.691406 681.816406 1131.222656 504.621094 C 1140.707031 534.28125 1163.4375 575.484375 1140.558594 726.332031 C 1133.042969 775.871094 1137.15625 794.542969 1070.3125 784.40625 C 1003.476562 774.269531 1012.933594 757.65625 1020.449219 708.117188 " fill-opacity="1" fill-rule="nonzero"/></g></g></g><path fill="#19aaee" d="M 1663.398438 546.261719 C 1630.472656 534.878906 1595.367188 535.753906 1559.0625 548.847656 C 1548.984375 552.480469 1538.832031 556.304688 1528.078125 560.347656 L 1527.59375 560.527344 C 1465.820312 583.773438 1395.804688 610.121094 1316.46875 610.128906 C 1306.414062 610.128906 1296.273438 609.699219 1286.332031 608.855469 C 1238.605469 604.800781 1194.09375 584.335938 1151.019531 564.535156 C 1104.6875 543.238281 1056.773438 521.21875 1003.117188 518.105469 C 950.871094 515.628906 898.882812 518.246094 847.148438 525.949219 L 793.511719 534.164062 L 847.691406 537.203125 C 949.425781 542.910156 1036.726562 587.300781 1094.523438 616.683594 C 1169.695312 654.910156 1229.058594 672.796875 1281.339844 672.96875 C 1282.003906 672.972656 1282.65625 672.976562 1283.316406 672.976562 C 1388.359375 672.972656 1442.34375 641.324219 1494.695312 610.628906 C 1541.492188 583.191406 1585.695312 557.277344 1660.90625 557.277344 L 1695.269531 557.28125 Z M 1663.398438 546.261719 " fill-opacity="1" fill-rule="nonzero"/><path fill="#19aaee" d="M 991.992188 467.265625 C 1078.292969 467.265625 1124.34375 488.351562 1157.964844 503.746094 L 1162.003906 505.589844 C 1168.183594 508.410156 1174.847656 511.902344 1182.585938 515.957031 C 1217.40625 534.207031 1266.640625 560.011719 1340.316406 560.011719 C 1359.105469 559.960938 1377.769531 558.398438 1396.308594 555.324219 L 1432.421875 549.449219 L 1396.21875 544.128906 C 1316.8125 532.457031 1279.941406 507.464844 1244.273438 483.289062 C 1217.128906 464.894531 1191.492188 447.519531 1147.691406 436.570312 C 1077.425781 419.003906 1002.097656 426.867188 910.640625 461.316406 L 867.191406 477.679688 L 913.300781 472.242188 C 939.433594 469.054688 965.664062 467.394531 991.992188 467.265625 Z M 1160.34375 498.601562 L 1160.339844 498.605469 Z M 1160.34375 498.601562 " fill-opacity="1" fill-rule="nonzero"/><g clip-path="url(#3067f11b62)"><path fill="#19aaee" d="M 1052.238281 655.226562 C 1004.984375 631.574219 956.121094 607.117188 884.074219 593.292969 C 827.339844 582.402344 766.589844 590.019531 725.621094 598.328125 L 672.617188 609.074219 L 726.699219 609.542969 C 798.207031 610.164062 836.3125 627.90625 869.976562 643.582031 C 878.410156 647.503906 886.371094 651.214844 894.511719 654.484375 C 969.246094 684.515625 1038.449219 689.886719 1102.097656 691.214844 L 1130.203125 691.804688 L 1104.515625 680.378906 C 1086.269531 672.261719 1068.96875 663.601562 1052.238281 655.226562 Z M 1052.238281 655.226562 " fill-opacity="1" fill-rule="nonzero"/></g><g clip-path="url(#6aa697efec)"><g clip-path="url(#e584e77ce7)"><g clip-path="url(#f73a5b13be)"><path fill="#ffffff" d="M 1070.3125 784.410156 C 1137.15625 794.550781 1133.042969 775.875 1140.558594 726.335938 C 1163.433594 575.488281 1140.707031 534.285156 1131.21875 504.625 C 1103.691406 681.820312 1095.324219 692.65625 1095.324219 692.65625 L 1128.082031 476.671875 C 1134.125 436.816406 1201.597656 -27.359375 1209.941406 -84.734375 L 1202.304688 -85.894531 L 1107.390625 539.914062 C 1096.660156 610.671875 1081.558594 658.0625 1081.558594 658.0625 L 1196.871094 -86.71875 L 1194.683594 -87.050781 C 1185.636719 -29.777344 1112.441406 433.527344 1106.394531 473.382812 L 1070.011719 713.277344 C 1070.011719 713.277344 1069.429688 711.515625 1069.972656 700.609375 C 1070.066406 670.820312 1071.390625 593.109375 1081.761719 517.511719 C 1063.292969 543.941406 1038.449219 589.421875 1020.449219 708.121094 C 1012.933594 757.660156 1003.476562 774.273438 1070.3125 784.410156 Z M 1022.636719 730.875 C 1024.273438 722.511719 1026.3125 714.363281 1028.390625 706.15625 C 1027.972656 714.601562 1026.910156 723.019531 1026.324219 731.347656 C 1026.011719 735.503906 1025.804688 739.652344 1026.140625 743.625 C 1026.269531 745.617188 1026.613281 747.53125 1027.042969 749.371094 C 1027.53125 751.191406 1028.253906 752.878906 1029.144531 754.429688 C 1032.902344 760.546875 1040.503906 763.8125 1048.175781 766.039062 C 1055.933594 768.328125 1064.132812 769.777344 1072.347656 770.996094 C 1080.5625 772.253906 1088.820312 773.320312 1096.90625 773.421875 C 1104.894531 773.566406 1113.113281 772.699219 1118.511719 767.980469 C 1119.828125 766.765625 1121.011719 765.371094 1122.019531 763.769531 C 1122.984375 762.144531 1123.863281 760.417969 1124.589844 758.558594 C 1126.085938 754.855469 1127.121094 750.835938 1128.054688 746.777344 C 1129.96875 738.648438 1131.445312 730.292969 1133.558594 722.105469 C 1133.117188 730.5625 1132.640625 738.949219 1131.734375 747.421875 C 1131.21875 751.652344 1130.5625 755.910156 1129.308594 760.183594 C 1128.101562 764.433594 1126.019531 768.753906 1122.632812 772.277344 C 1120.90625 773.988281 1118.929688 775.433594 1116.816406 776.578125 C 1114.675781 777.636719 1112.453125 778.492188 1110.226562 779.023438 C 1105.757812 780.15625 1101.296875 780.527344 1096.921875 780.640625 C 1088.152344 780.753906 1079.648438 779.6875 1071.203125 778.523438 C 1062.808594 777.125 1054.363281 775.632812 1046.027344 772.90625 C 1041.878906 771.503906 1037.730469 769.835938 1033.804688 767.421875 C 1031.835938 766.257812 1029.960938 764.78125 1028.242188 763.136719 C 1026.558594 761.414062 1025.097656 759.445312 1023.960938 757.304688 C 1021.769531 752.941406 1021.058594 748.191406 1021.171875 743.78125 C 1021.246094 739.324219 1021.871094 735.066406 1022.636719 730.875 " fill-opacity="1" fill-rule="nonzero"/></g></g></g><g clip-path="url(#406042ebe1)"><g clip-path="url(#cbc1dfdcb9)"><g clip-path="url(#87f387f21d)"><path fill="#043653" d="M 1069.167969 791.945312 C 1100.53125 796.699219 1117.785156 795.308594 1128.710938 787.148438 C 1141.050781 777.9375 1143.257812 761.992188 1146.3125 739.917969 C 1146.863281 735.957031 1147.429688 731.859375 1148.09375 727.480469 C 1169 589.648438 1152.480469 542.511719 1141.550781 511.320312 C 1136.921875 498.105469 1133.859375 489.378906 1135.613281 477.816406 C 1141.640625 438.082031 1209.492188 -28.699219 1217.546875 -84.121094 C 1223.609375 -85.960938 1229.265625 -89.914062 1230.296875 -96.71875 C 1232.246094 -109.570312 1219.035156 -111.574219 1214.695312 -112.230469 C 1213.566406 -112.402344 1212.347656 -112.566406 1211.042969 -112.746094 C 1209.625 -112.9375 1208.101562 -113.144531 1206.472656 -113.390625 C 1204.855469 -113.636719 1203.34375 -113.890625 1201.929688 -114.128906 C 1200.628906 -114.34375 1199.414062 -114.546875 1198.289062 -114.71875 C 1193.949219 -115.378906 1180.738281 -117.378906 1178.789062 -104.53125 C 1177.757812 -97.726562 1181.984375 -92.273438 1187.230469 -88.71875 C 1178.488281 -33.398438 1104.878906 432.507812 1098.851562 472.242188 C 1097.097656 483.804688 1091.59375 491.230469 1083.257812 502.480469 C 1063.570312 529.027344 1033.820312 569.144531 1012.914062 706.980469 C 1012.25 711.355469 1011.578125 715.441406 1010.929688 719.386719 C 1007.300781 741.375 1004.679688 757.261719 1013.730469 769.710938 C 1021.75 780.742188 1037.8125 787.1875 1069.167969 791.945312 Z M 1186.328125 -103.390625 C 1187.039062 -108.078125 1190.644531 -108.167969 1197.144531 -107.179688 C 1199.492188 -106.824219 1202.230469 -106.328125 1205.332031 -105.859375 C 1208.445312 -105.386719 1211.199219 -105.050781 1213.550781 -104.691406 C 1220.046875 -103.707031 1223.46875 -102.550781 1222.757812 -97.863281 C 1221.789062 -91.472656 1210.785156 -90.550781 1210.785156 -90.550781 L 1195.59375 -92.851562 C 1195.59375 -92.851562 1185.359375 -97 1186.328125 -103.390625 Z M 1020.449219 708.121094 C 1038.449219 589.421875 1063.292969 543.941406 1081.761719 517.511719 C 1071.390625 593.109375 1070.066406 670.820312 1069.972656 700.609375 C 1069.429688 711.515625 1070.011719 713.277344 1070.011719 713.277344 L 1106.394531 473.382812 C 1112.441406 433.527344 1185.636719 -29.777344 1194.683594 -87.050781 L 1196.871094 -86.71875 L 1081.558594 658.0625 C 1081.558594 658.0625 1096.660156 610.671875 1107.390625 539.914062 L 1202.304688 -85.894531 L 1209.941406 -84.734375 C 1201.597656 -27.359375 1134.125 436.816406 1128.082031 476.671875 L 1095.324219 692.65625 C 1095.324219 692.65625 1103.691406 681.820312 1131.21875 504.625 C 1140.707031 534.285156 1163.433594 575.488281 1140.558594 726.335938 C 1133.042969 775.875 1137.15625 794.550781 1070.3125 784.410156 C 1003.476562 774.273438 1012.933594 757.660156 1020.449219 708.121094 " fill-opacity="1" fill-rule="nonzero"/></g></g></g><g clip-path="url(#2bb48e7fee)"><g clip-path="url(#5f736f126a)"><g clip-path="url(#c37c4c16c6)"><path fill="#043653" d="M 1028.242188 763.136719 C 1029.960938 764.78125 1031.835938 766.257812 1033.804688 767.421875 C 1037.730469 769.835938 1041.878906 771.503906 1046.027344 772.90625 C 1054.363281 775.632812 1062.808594 777.125 1071.203125 778.523438 C 1079.648438 779.6875 1088.152344 780.753906 1096.921875 780.640625 C 1101.296875 780.527344 1105.757812 780.15625 1110.226562 779.023438 C 1112.453125 778.492188 1114.675781 777.636719 1116.816406 776.578125 C 1118.929688 775.433594 1120.90625 773.988281 1122.632812 772.277344 C 1126.019531 768.753906 1128.101562 764.433594 1129.308594 760.183594 C 1130.5625 755.910156 1131.21875 751.652344 1131.734375 747.421875 C 1132.640625 738.949219 1133.117188 730.5625 1133.558594 722.105469 C 1131.445312 730.292969 1129.96875 738.648438 1128.054688 746.777344 C 1127.121094 750.835938 1126.085938 754.855469 1124.589844 758.558594 C 1123.863281 760.417969 1122.984375 762.144531 1122.019531 763.769531 C 1121.011719 765.371094 1119.828125 766.765625 1118.511719 767.980469 C 1113.113281 772.699219 1104.894531 773.566406 1096.90625 773.421875 C 1088.820312 773.320312 1080.5625 772.253906 1072.347656 770.996094 C 1064.132812 769.777344 1055.933594 768.328125 1048.175781 766.039062 C 1040.503906 763.8125 1032.902344 760.546875 1029.144531 754.429688 C 1028.253906 752.878906 1027.53125 751.191406 1027.042969 749.371094 C 1026.613281 747.53125 1026.269531 745.617188 1026.140625 743.625 C 1025.804688 739.652344 1026.011719 735.503906 1026.324219 731.347656 C 1026.910156 723.019531 1027.972656 714.601562 1028.390625 706.15625 C 1026.3125 714.363281 1024.273438 722.511719 1022.636719 730.875 C 1021.871094 735.066406 1021.246094 739.324219 1021.171875 743.78125 C 1021.058594 748.191406 1021.769531 752.941406 1023.960938 757.304688 C 1025.097656 759.445312 1026.558594 761.414062 1028.242188 763.136719 " fill-opacity="1" fill-rule="nonzero"/></g></g></g></svg>